<svg width="103" height="32" viewBox="0 0 103 32" fill="none" xmlns="http://www.w3.org/2000/svg">
<path d="M12.75 6.25H6.25C5.38805 6.25 4.5614 6.59241 3.9519 7.2019C3.34241 7.8114 3 8.63805 3 9.5V25.75C3 26.612 3.34241 27.4386 3.9519 28.0481C4.5614 28.6576 5.38805 29 6.25 29H22.5C23.362 29 24.1886 28.6576 24.7981 28.0481C25.4076 27.4386 25.75 26.612 25.75 25.75V19.25M19.25 3H29M29 3V12.75M29 3C22.654 9.34602 19.096 12.904 12.75 19.25" stroke="#2B902F" stroke-width="3.55556" stroke-linecap="round" stroke-linejoin="round"/>
<path d="M60.6628 12.4345C60.1259 8.55664 57.1429 6.30664 53.2736 6.30664C48.714 6.30664 45.2793 9.6305 45.2793 15.2725C45.2793 20.906 48.6714 24.2384 53.2736 24.2384C57.4242 24.2384 60.177 21.5538 60.6628 18.2214L57.4753 18.2043C57.0748 20.2498 55.4043 21.4004 53.3162 21.4004C50.4867 21.4004 48.4583 19.2782 48.4583 15.2725C48.4583 11.335 50.4697 9.14471 53.3248 9.14471C55.4469 9.14471 57.1089 10.3464 57.4753 12.4345H60.6628ZM67.1891 24.264C69.2431 24.264 70.4704 23.3009 71.0329 22.2015H71.1351V23.9998H74.101V15.2384C74.101 11.7782 71.28 10.7384 68.7829 10.7384C66.03 10.7384 63.9164 11.9657 63.2346 14.3521L66.1152 14.7612C66.4221 13.8663 67.2914 13.0992 68.7999 13.0992C70.2317 13.0992 71.0158 13.8322 71.0158 15.1191V15.1703C71.0158 16.0566 70.0868 16.0992 67.7772 16.3464C65.2374 16.6191 62.8084 17.3776 62.8084 20.3265C62.8084 22.9004 64.692 24.264 67.1891 24.264ZM67.9902 21.997C66.7033 21.997 65.7829 21.4089 65.7829 20.2754C65.7829 19.0907 66.8141 18.5964 68.1948 18.4004C69.0045 18.2896 70.6238 18.085 71.0243 17.7612V19.3038C71.0243 20.7612 69.8482 21.997 67.9902 21.997ZM80.1777 19.8237V10.9089H77.2033V23.9998H80.3823L85.6067 15.0765V23.9998H88.5897V10.9089H85.4192L80.1777 19.8237ZM84.5755 6.40891C84.567 7.24414 84.0897 7.98561 82.888 7.98561C81.6692 7.98561 81.209 7.22709 81.209 6.40891H78.9164C78.9079 8.40323 80.4505 9.74982 82.888 9.74982C85.3425 9.74982 86.8851 8.40323 86.8851 6.40891H84.5755ZM90.2921 13.4401H94.5279V23.9998H97.5108V13.4401H101.747V10.9089H90.2921V13.4401Z" fill="#2B902F"/>
</svg>
